<svg xmlns="http://www.w3.org/2000/svg" viewBox="0 0 600 700" width="600" height="700">
  <defs>
    <radialGradient id="bg-sports-infinity-0" cx="50%" cy="40%" r="60%">
      <stop offset="0%" stop-color="#1a1a1a"/>
      <stop offset="100%" stop-color="#000000"/>
    </radialGradient>
    <linearGradient id="bezel-sports-infinity-0" x1="0%" y1="0%" x2="100%" y2="100%">
      <stop offset="0%" stop-color="#333333"/>
      <stop offset="100%" stop-color="#33333388"/>
    </linearGradient>
    <linearGradient id="case-sports-infinity-0" x1="0%" y1="0%" x2="100%" y2="100%">
      <stop offset="0%" stop-color="#888888"/>
      <stop offset="100%" stop-color="#88888888"/>
    </linearGradient>
    <radialGradient id="dial-sports-infinity-0" cx="50%" cy="50%" r="50%">
      <stop offset="0%" stop-color="#111111"/>
      <stop offset="100%" stop-color="#111111bb"/>
    </radialGradient>
    <filter id="glow-sports-infinity-0">
      <feGaussianBlur stdDeviation="3" result="blur"/>
      <feMerge><feMergeNode in="blur"/><feMergeNode in="SourceGraphic"/></feMerge>
    </filter>
  </defs>
  <rect width="600" height="700" fill="url(#bg-sports-infinity-0)"/>
  <g transform="translate(300,350) rotate(0)">
    <rect x="-30" y="-280" width="60" height="80" rx="4" fill="url(#case-sports-infinity-0)" opacity="0.9"/>
    <rect x="-28" y="-270" width="56" height="15" rx="2" fill="#333333" opacity="0.3"/>
    <rect x="-28" y="-245" width="56" height="15" rx="2" fill="#333333" opacity="0.3"/>
    <circle cx="0" cy="0" r="160" fill="url(#case-sports-infinity-0)" filter="url(#glow-sports-infinity-0)"/>
    <circle cx="0" cy="0" r="155" fill="none" stroke="url(#bezel-sports-infinity-0)" stroke-width="12"/>
    <circle cx="0" cy="0" r="148" fill="none" stroke="#333333" stroke-width="2" opacity="0.5"/>
    <circle cx="0" cy="0" r="130" fill="url(#dial-sports-infinity-0)"/>
    <line x1="6.735557395310443e-15" y1="-110" x2="7.654042494670958e-15" y2="-125" stroke="#333333" stroke-width="3" stroke-linecap="round"/><line x1="54.999999999999986" y1="-95.26279441628826" x2="62.499999999999986" y2="-108.25317547305484" stroke="#333333" stroke-width="3" stroke-linecap="round"/><line x1="95.26279441628824" y1="-55" x2="108.25317547305482" y2="-62.5" stroke="#333333" stroke-width="3" stroke-linecap="round"/><line x1="110" y1="0" x2="125" y2="0" stroke="#333333" stroke-width="3" stroke-linecap="round"/><line x1="95.26279441628826" y1="54.99999999999998" x2="108.25317547305484" y2="62.49999999999998" stroke="#333333" stroke-width="3" stroke-linecap="round"/><line x1="54.999999999999986" y1="95.26279441628826" x2="62.499999999999986" y2="108.25317547305484" stroke="#333333" stroke-width="3" stroke-linecap="round"/><line x1="6.735557395310443e-15" y1="110" x2="7.654042494670958e-15" y2="125" stroke="#333333" stroke-width="3" stroke-linecap="round"/><line x1="-55.00000000000002" y1="95.26279441628824" x2="-62.50000000000003" y2="108.25317547305482" stroke="#333333" stroke-width="3" stroke-linecap="round"/><line x1="-95.26279441628823" y1="55.000000000000036" x2="-108.25317547305481" y2="62.50000000000004" stroke="#333333" stroke-width="3" stroke-linecap="round"/><line x1="-110" y1="1.3471114790620885e-14" x2="-125" y2="1.5308084989341916e-14" stroke="#333333" stroke-width="3" stroke-linecap="round"/><line x1="-95.26279441628824" y1="-55.000000000000014" x2="-108.25317547305482" y2="-62.500000000000014" stroke="#333333" stroke-width="3" stroke-linecap="round"/><line x1="-55.00000000000005" y1="-95.26279441628823" x2="-62.50000000000006" y2="-108.25317547305481" stroke="#333333" stroke-width="3" stroke-linecap="round"/>
    <line x1="0" y1="0" x2="0" y2="-70" stroke="#333333" stroke-width="4" stroke-linecap="round" transform="rotate(30)"/>
    <line x1="0" y1="0" x2="45" y2="-30" stroke="#333333" stroke-width="3" stroke-linecap="round" transform="rotate(150)" opacity="0.8"/>
    <line x1="0" y1="0" x2="-20" y2="-90" stroke="#C8A96E" stroke-width="1.5" stroke-linecap="round" transform="rotate(270)" opacity="0.6"/>
    <circle cx="0" cy="0" r="8" fill="#333333"/>
    <rect x="155" y="-12" width="20" height="24" rx="4" fill="#333333"/>
    <ellipse cx="-40" cy="-50" rx="60" ry="40" fill="white" opacity="0.15" transform="rotate(-30)"/>
    <text x="0" y="50" text-anchor="middle" fill="#333333" font-family="Georgia,serif" font-size="14" letter-spacing="4" opacity="0.8">AVIOR</text>
    <rect x="-30" y="200" width="60" height="80" rx="4" fill="url(#case-sports-infinity-0)" opacity="0.9"/>
    <rect x="-28" y="210" width="56" height="15" rx="2" fill="#333333" opacity="0.3"/>
    <rect x="-28" y="235" width="56" height="15" rx="2" fill="#333333" opacity="0.3"/>
  </g>
  <text x="300" y="680" text-anchor="middle" fill="#C8A96E" font-family="Georgia,serif" font-size="11" letter-spacing="6" opacity="0.5">AVIOR PRESTIGE</text>
</svg>